<svg xmlns="http://www.w3.org/2000/svg" xmlns:xlink="http://www.w3.org/1999/xlink" width="500" zoomAndPan="magnify" viewBox="0 0 375 149.999998" height="200" preserveAspectRatio="xMidYMid meet" version="1.0"><defs><g/><clipPath id="1ac05406d5"><rect x="0" width="189" y="0" height="102"/></clipPath></defs><g transform="matrix(1, 0, 0, 1, 95, 25)"><g clip-path="url(#1ac05406d5)"><g fill="#f76500" fill-opacity="1"><g transform="translate(0.205356, 73.852742)"><g><path d="M 38.8125 0 L 27.9375 0 L 26.078125 -12.453125 L 12.84375 -12.453125 L 10.984375 0 L 1.078125 0 L 12.0625 -68.609375 L 27.84375 -68.609375 Z M 14.21875 -21.765625 L 24.609375 -21.765625 L 19.40625 -56.453125 Z M 14.21875 -21.765625 "/></g></g></g><g fill="#f76500" fill-opacity="1"><g transform="translate(40.092548, 73.852742)"><g><path d="M 0.78125 -68.609375 L 34.109375 -68.609375 L 34.109375 -58.8125 L 22.84375 -58.8125 L 22.84375 0 L 12.0625 0 L 12.0625 -58.8125 L 0.78125 -58.8125 Z M 0.78125 -68.609375 "/></g></g></g><g fill="#f76500" fill-opacity="1"><g transform="translate(74.981597, 73.852742)"><g><path d="M 3.921875 -68.609375 L 14.703125 -68.609375 L 14.703125 -9.796875 L 32.4375 -9.796875 L 32.4375 0 L 3.921875 0 Z M 3.921875 -68.609375 "/></g></g></g><g fill="#f76500" fill-opacity="1"><g transform="translate(108.204598, 73.852742)"><g><path d="M 38.8125 0 L 27.9375 0 L 26.078125 -12.453125 L 12.84375 -12.453125 L 10.984375 0 L 1.078125 0 L 12.0625 -68.609375 L 27.84375 -68.609375 Z M 14.21875 -21.765625 L 24.609375 -21.765625 L 19.40625 -56.453125 Z M 14.21875 -21.765625 "/></g></g></g><g fill="#f76500" fill-opacity="1"><g transform="translate(148.09179, 73.852742)"><g><path d="M 2.546875 -52.140625 C 2.546875 -57.691406 3.867188 -61.953125 6.515625 -64.921875 C 9.160156 -67.898438 13.128906 -69.390625 18.421875 -69.390625 C 23.710938 -69.390625 27.679688 -67.898438 30.328125 -64.921875 C 32.984375 -61.953125 34.3125 -57.691406 34.3125 -52.140625 L 34.3125 -49.984375 L 24.109375 -49.984375 L 24.109375 -52.828125 C 24.109375 -55.316406 23.632812 -57.066406 22.6875 -58.078125 C 21.738281 -59.085938 20.414062 -59.59375 18.71875 -59.59375 C 17.019531 -59.59375 15.695312 -59.085938 14.75 -58.078125 C 13.800781 -57.066406 13.328125 -55.316406 13.328125 -52.828125 C 13.328125 -50.472656 13.847656 -48.394531 14.890625 -46.59375 C 15.941406 -44.800781 17.25 -43.101562 18.8125 -41.5 C 20.382812 -39.90625 22.066406 -38.304688 23.859375 -36.703125 C 25.660156 -35.109375 27.34375 -33.363281 28.90625 -31.46875 C 30.476562 -29.570312 31.785156 -27.414062 32.828125 -25 C 33.878906 -22.582031 34.40625 -19.738281 34.40625 -16.46875 C 34.40625 -10.914062 33.046875 -6.648438 30.328125 -3.671875 C 27.617188 -0.703125 23.617188 0.78125 18.328125 0.78125 C 13.035156 0.78125 9.03125 -0.703125 6.3125 -3.671875 C 3.601562 -6.648438 2.25 -10.914062 2.25 -16.46875 L 2.25 -20.6875 L 12.453125 -20.6875 L 12.453125 -15.78125 C 12.453125 -13.300781 12.957031 -11.566406 13.96875 -10.578125 C 14.976562 -9.597656 16.332031 -9.109375 18.03125 -9.109375 C 19.726562 -9.109375 21.082031 -9.597656 22.09375 -10.578125 C 23.113281 -11.566406 23.625 -13.300781 23.625 -15.78125 C 23.625 -18.132812 23.097656 -20.207031 22.046875 -22 C 21.003906 -23.800781 19.695312 -25.5 18.125 -27.09375 C 16.5625 -28.695312 14.878906 -30.300781 13.078125 -31.90625 C 11.285156 -33.507812 9.601562 -35.253906 8.03125 -37.140625 C 6.46875 -39.035156 5.160156 -41.191406 4.109375 -43.609375 C 3.066406 -46.035156 2.546875 -48.878906 2.546875 -52.140625 Z M 2.546875 -52.140625 "/></g></g></g></g></g></svg>